<?xml version="1.0" encoding="utf-8"?>
<!-- Generator: Adobe Illustrator 22.0.1, SVG Export Plug-In . SVG Version: 6.00 Build 0)  -->
<svg version="1.1" id="Layer_1" xmlns="http://www.w3.org/2000/svg" xmlns:xlink="http://www.w3.org/1999/xlink" x="0px" y="0px"
	 viewBox="0 0 54 86" style="enable-background:new 0 0 54 86;" xml:space="preserve">
<style type="text/css">
	.st0{fill:#FFFFFF;}
	.st1{fill:url(#SVGID_1_);}
	.st2{fill:url(#SVGID_2_);}
	.st3{fill:#18174A;}
	.st4{fill:url(#SVGID_3_);}
	.st5{fill:#4D4D4F;}
	.st6{fill:#F4912E;}
	.st7{fill:#E9215A;}
	.st8{fill:#606161;}
	.st9{fill:#B1B3B6;}
	.st10{opacity:0.2;}
	.st11{fill:#96CA4F;}
	.st12{fill:url(#SVGID_4_);}
	.st13{fill:#E8225B;}
	.st14{fill:#1B959A;}
	.st15{fill:#F68820;}
	.st16{fill:#9EACB5;}
	.st17{fill:url(#SVGID_5_);}
	.st18{fill:none;stroke:#E2E2E2;stroke-miterlimit:10;}
	.st19{fill:url(#SVGID_6_);}
	.st20{opacity:0.1;}
	.st21{fill:url(#SVGID_7_);}
	.st22{fill:url(#SVGID_8_);}
	.st23{fill:url(#SVGID_9_);}
	.st24{fill:none;stroke:#E2E2E2;stroke-width:0.25;stroke-miterlimit:10;}
	.st25{fill:url(#SVGID_10_);}
	.st26{opacity:0.1;fill:#231911;}
	.st27{fill:url(#SVGID_11_);}
	.st28{opacity:0.3;fill:#FFFFFF;}
	.st29{fill:#757576;}
	.st30{fill:url(#SVGID_12_);}
	.st31{fill:url(#SVGID_13_);}
	.st32{fill:url(#SVGID_14_);}
	.st33{fill:url(#SVGID_15_);}
	.st34{fill:url(#SVGID_16_);}
	.st35{fill:url(#SVGID_17_);}
	.st36{fill:url(#SVGID_18_);}
	.st37{fill:url(#SVGID_19_);}
	.st38{fill:url(#SVGID_20_);}
	.st39{fill:url(#SVGID_21_);}
	.st40{fill:url(#SVGID_22_);}
	.st41{fill:url(#SVGID_23_);}
	.st42{fill:none;stroke:#757576;stroke-linecap:round;stroke-miterlimit:10;}
	.st43{fill:none;stroke:#FFFFFF;stroke-linecap:round;stroke-miterlimit:10;}
	.st44{fill:url(#SVGID_24_);}
	.st45{fill:url(#SVGID_25_);}
	.st46{fill:url(#SVGID_26_);}
	.st47{fill:url(#SVGID_27_);}
	.st48{fill:url(#SVGID_28_);}
	.st49{fill:url(#SVGID_29_);}
	.st50{fill:url(#SVGID_30_);}
	.st51{fill:url(#SVGID_31_);}
	.st52{fill:url(#SVGID_32_);}
	.st53{fill:url(#SVGID_33_);}
	.st54{fill:url(#SVGID_34_);}
	.st55{fill:url(#SVGID_35_);}
	.st56{fill:url(#SVGID_36_);}
	.st57{fill:url(#SVGID_37_);}
	.st58{fill:url(#SVGID_38_);}
	.st59{fill:url(#SVGID_39_);}
</style>
<g>
	<g>
		
			<linearGradient id="SVGID_1_" gradientUnits="userSpaceOnUse" x1="-3291.917" y1="2521.8445" x2="-3308.0271" y2="2505.3792" gradientTransform="matrix(0.7071 0.7071 -0.7071 0.7071 4138.022 618.4309)">
			<stop  offset="0" style="stop-color:#F7922D"/>
			<stop  offset="0.1574" style="stop-color:#F58738"/>
			<stop  offset="0.4634" style="stop-color:#EF694D"/>
			<stop  offset="0.5636" style="stop-color:#ED5C52"/>
			<stop  offset="1" style="stop-color:#E8225B"/>
		</linearGradient>
		<path class="st1" d="M8.1,80.2c0,0-1.1-8.3-0.9-9.3l19.8-47.6c0.5-0.5,1.3-0.5,1.8,0l18,18c0.5,0.5,0.5,1.3,0,1.8l-37,37
			C9.5,80.7,8.6,80.7,8.1,80.2z"/>
		<path class="st26" d="M29.1,61c0,0-1.5,1.5-1.6,1.5c-0.9-0.9-11.8-12-11.8-12l3.4-8.1L29.1,61z"/>
		
			<linearGradient id="SVGID_2_" gradientUnits="userSpaceOnUse" x1="4011.7102" y1="9815.7754" x2="4009.9583" y2="9870.1719" gradientTransform="matrix(0.7078 -0.7078 -0.7071 -0.7071 4136.873 9829.7617)">
			<stop  offset="0" style="stop-color:#F7922D"/>
			<stop  offset="0.2716" style="stop-color:#F27943"/>
			<stop  offset="0.7647" style="stop-color:#EB4458"/>
			<stop  offset="1" style="stop-color:#E8225B"/>
		</linearGradient>
		<path class="st2" d="M8.7,5c0,0-1.8,8.1-1.6,9l20.5,48.6c0.1-0.1,0.8-0.8,1.3-1.3l18.1-18.1c0.5-0.5,0.5-1.3,0-1.8L10.5,5
			C10,4.5,9.2,4.5,8.7,5z"/>
		<path class="st28" d="M40.8,35.2c0,0,1.3,2.6,0.6,5.5c-0.6,2.7-3.4,7.2-5.8,10.7c-5.8,8.1-7.9,11.2-7.9,11.2l19.3-19.4
			c0,0,0.9-0.9,0-1.8C46,40.5,40.8,35.2,40.8,35.2z"/>
	</g>
</g>
</svg>
